<?xml version="1.0" encoding="utf-8"?>
<svg xmlns="http://www.w3.org/2000/svg" viewBox="0 0 50 50" fill="#000000"><path style="line-height:normal;text-indent:0;text-align:start;text-decoration-line:none;text-decoration-style:solid;text-decoration-color:#000;text-transform:none;block-progression:tb;isolation:auto;mix-blend-mode:normal" d="M 12 3 C 10.35503 3 9 4.3550302 9 6 L 9 44 C 9 45.64497 10.35503 47 12 47 L 38 47 C 39.64497 47 41 45.64497 41 44 L 41 6 C 41 4.3550302 39.64497 3 38 3 L 12 3 z M 12 5 L 38 5 C 38.56503 5 39 5.4349698 39 6 L 39 44 C 39 44.56503 38.56503 45 38 45 L 12 45 C 11.43497 45 11 44.56503 11 44 L 11 6 C 11 5.4349698 11.43497 5 12 5 z M 14 7 A 1 1 0 0 0 13 8 A 1 1 0 0 0 14 9 A 1 1 0 0 0 15 8 A 1 1 0 0 0 14 7 z M 25 7 C 21.698136 7 19 9.6981361 19 13 C 19 16.301864 21.698136 19 25 19 C 28.301864 19 31 16.301864 31 13 C 31 9.6981361 28.301864 7 25 7 z M 36 7 A 1 1 0 0 0 35 8 A 1 1 0 0 0 36 9 A 1 1 0 0 0 37 8 A 1 1 0 0 0 36 7 z M 25 9 C 27.220984 9 29 10.779016 29 13 C 29 15.220984 27.220984 17 25 17 C 22.779016 17 21 15.220984 21 13 C 21 10.779016 22.779016 9 25 9 z M 25 11 A 2 2 0 0 0 23 13 A 2 2 0 0 0 25 15 A 2 2 0 0 0 27 13 A 2 2 0 0 0 25 11 z M 25 23 C 19.488997 23 15 27.488997 15 33 C 15 38.511003 19.488997 43 25 43 C 30.511003 43 35 38.511003 35 33 C 35 27.488997 30.511003 23 25 23 z M 25 25 C 29.430123 25 33 28.569877 33 33 C 33 37.430123 29.430123 41 25 41 C 20.569877 41 17 37.430123 17 33 C 17 28.569877 20.569877 25 25 25 z M 25 29 C 22.802706 29 21 30.802706 21 33 C 21 35.197294 22.802706 37 25 37 C 27.197294 37 29 35.197294 29 33 C 29 30.802706 27.197294 29 25 29 z M 25 31 C 26.116414 31 27 31.883586 27 33 C 27 34.116414 26.116414 35 25 35 C 23.883586 35 23 34.116414 23 33 C 23 31.883586 23.883586 31 25 31 z M 14 41 A 1 1 0 0 0 13 42 A 1 1 0 0 0 14 43 A 1 1 0 0 0 15 42 A 1 1 0 0 0 14 41 z M 36 41 A 1 1 0 0 0 35 42 A 1 1 0 0 0 36 43 A 1 1 0 0 0 37 42 A 1 1 0 0 0 36 41 z" fill="#000000"/></svg>
